<?xml version="1.0" standalone="no"?>
<!DOCTYPE svg PUBLIC "-//W3C//DTD SVG 20010904//EN"
 "http://www.w3.org/TR/2001/REC-SVG-20010904/DTD/svg10.dtd">
<svg version="1.0" xmlns="http://www.w3.org/2000/svg"
 width="500.000000pt" height="500.000000pt" viewBox="0 0 500.000000 500.000000"
 preserveAspectRatio="xMidYMid meet">
<metadata>
Created by potrace 1.11, written by Peter Selinger 2001-2013
</metadata>
<g transform="translate(0.000000,500.000000) scale(0.100000,-0.100000)"
fill="#000000" stroke="none">
<path d="M0 2500 l0 -2500 2500 0 2500 0 0 2500 0 2500 -2500 0 -2500 0 0
-2500z m2086 1952 c6 -4 15 -27 19 -52 4 -25 13 -61 20 -80 7 -19 20 -62 30
-95 9 -33 23 -76 30 -95 7 -19 19 -71 28 -115 8 -44 24 -107 35 -140 37 -109
51 -159 63 -225 6 -36 18 -79 25 -97 8 -17 14 -39 14 -50 1 -10 7 -29 15 -43
8 -14 14 -36 15 -50 0 -15 4 -30 8 -35 5 -6 14 -44 21 -85 7 -41 19 -90 27
-108 8 -18 14 -38 14 -45 0 -25 34 -97 44 -94 6 2 16 28 22 58 13 61 30 111
50 152 8 16 14 37 14 47 0 30 27 125 49 176 12 26 21 54 21 63 0 10 7 26 15
37 8 10 15 30 15 43 0 14 4 38 10 55 31 98 50 156 65 191 22 50 45 139 45 169
0 12 7 31 15 42 8 10 15 27 15 37 0 11 6 31 14 45 16 30 50 137 61 192 10 50
32 80 58 80 36 0 139 -36 147 -51 9 -16 -14 -177 -36 -259 -9 -30 -20 -68 -24
-85 -5 -16 -12 -48 -16 -70 -3 -22 -10 -44 -14 -50 -4 -5 -13 -50 -19 -100 -7
-49 -19 -107 -27 -128 -8 -20 -14 -49 -14 -63 0 -14 -5 -34 -11 -45 -6 -11
-14 -41 -19 -67 -5 -26 -14 -67 -20 -92 -6 -25 -14 -70 -18 -100 -4 -30 -12
-62 -17 -70 -5 -8 -12 -32 -17 -55 -9 -50 -34 -150 -46 -191 -5 -17 -13 -60
-16 -95 -4 -35 -14 -84 -21 -109 -36 -115 -45 -150 -45 -172 -1 -13 -7 -34
-15 -48 -8 -14 -14 -41 -15 -60 0 -19 -5 -51 -10 -70 -21 -73 -8 -229 26 -307
8 -17 14 -40 14 -51 0 -11 7 -33 15 -48 8 -16 15 -40 15 -55 0 -14 5 -30 11
-36 5 -5 16 -50 24 -98 8 -49 19 -93 25 -99 5 -5 10 -21 10 -35 0 -15 7 -39
15 -55 8 -15 15 -37 15 -48 0 -11 5 -29 12 -41 6 -12 17 -53 24 -91 14 -72 21
-87 32 -71 8 11 103 83 143 109 14 9 70 25 125 37 96 20 101 20 179 4 125 -27
136 -32 205 -87 91 -73 116 -105 158 -205 30 -73 37 -103 40 -175 4 -79 1 -95
-29 -175 -18 -48 -41 -97 -51 -109 -10 -11 -18 -24 -18 -29 0 -9 -87 -95 -96
-95 -3 0 -23 -13 -43 -28 -38 -30 -100 -52 -146 -52 -15 0 -45 -5 -66 -12 -30
-9 -52 -8 -95 1 -30 7 -58 10 -61 7 -9 -9 40 -54 88 -81 160 -89 252 -123 398
-145 55 -9 71 -21 71 -54 0 -18 -6 -18 -97 -12 -53 4 -109 14 -124 22 -16 8
-35 14 -44 14 -8 0 -41 13 -73 29 -31 15 -79 39 -107 52 -27 13 -67 38 -87 56
-21 18 -48 35 -60 38 -13 4 -34 24 -47 45 -13 21 -36 44 -50 50 -14 6 -41 32
-58 58 -18 26 -42 57 -53 69 -52 56 -118 201 -132 287 -6 39 -24 110 -39 158
-16 47 -29 97 -29 110 0 13 -6 32 -14 43 -7 11 -16 40 -20 65 -15 107 -19 126
-26 135 -4 6 -11 26 -14 45 -4 19 -11 44 -16 55 -12 28 -29 95 -51 203 -25
124 -41 154 -77 146 -55 -12 -102 -37 -107 -58 -2 -12 -6 -34 -9 -51 -10 -59
-24 -120 -34 -150 -16 -48 -32 -113 -52 -220 -10 -55 -26 -127 -35 -160 -38
-137 -48 -185 -55 -275 -13 -160 -25 -201 -76 -260 -12 -14 -28 -37 -35 -52
-23 -43 -139 -127 -204 -146 -118 -34 -185 -36 -292 -11 -78 19 -107 31 -157
67 -61 45 -105 89 -106 106 0 6 -12 23 -27 38 -65 68 -89 292 -46 430 23 72
89 163 152 210 20 15 45 37 57 48 14 14 56 29 130 46 l108 24 99 -20 c119 -25
151 -38 195 -79 35 -33 60 -39 67 -18 3 6 11 48 19 92 8 44 19 95 25 113 6 17
16 47 22 65 6 17 15 50 19 72 5 22 14 58 19 80 6 22 17 72 25 110 8 39 21 95
30 125 49 165 50 181 7 363 -25 107 -31 139 -41 228 -6 52 -16 112 -22 134 -6
22 -15 60 -19 85 -11 73 -30 161 -44 215 -7 28 -16 84 -20 125 -5 70 -18 139
-46 250 -6 25 -15 74 -20 109 -5 36 -13 69 -19 75 -5 5 -10 28 -10 50 -1 44
-20 166 -45 286 -24 116 -46 230 -55 285 -10 63 6 91 56 101 21 4 49 13 63 20
29 16 41 17 57 6z"/>
<path d="M1999 4365 c-13 -13 -13 -30 2 -147 10 -73 22 -146 28 -161 6 -16 11
-43 11 -61 0 -19 7 -50 15 -69 8 -20 15 -52 15 -71 0 -19 5 -47 11 -63 6 -15
18 -81 25 -147 8 -65 19 -126 24 -136 6 -10 10 -35 10 -55 0 -19 7 -52 15 -72
8 -19 15 -49 15 -66 0 -17 6 -53 14 -81 8 -28 21 -100 30 -161 20 -149 32
-215 44 -245 5 -14 13 -53 17 -88 4 -34 11 -65 16 -68 5 -3 9 -21 9 -41 0 -38
13 -126 36 -238 7 -38 15 -80 16 -93 4 -35 21 -29 46 16 22 39 26 42 67 42 37
0 47 -5 64 -29 31 -43 27 -88 -9 -122 -47 -45 -86 -37 -128 27 -10 16 -11 11
-8 -36 3 -30 8 -75 13 -100 8 -44 9 -45 43 -44 19 1 61 5 92 9 l57 8 15 -34
c8 -19 22 -63 31 -99 9 -36 23 -83 30 -105 8 -22 19 -69 25 -105 7 -36 18 -82
26 -103 8 -20 14 -48 14 -61 0 -13 7 -37 15 -52 8 -16 15 -38 15 -50 0 -11 4
-24 10 -30 5 -5 15 -45 21 -89 6 -44 17 -92 25 -107 8 -14 14 -39 14 -55 1
-15 7 -39 15 -53 8 -14 14 -37 15 -51 0 -15 7 -40 15 -55 8 -16 15 -39 15 -52
0 -34 39 -113 74 -149 17 -17 42 -45 56 -62 13 -17 28 -31 34 -31 5 0 28 -9
50 -19 88 -42 121 -51 181 -51 69 0 98 8 201 55 83 38 143 102 192 206 29 60
32 74 32 163 0 88 -3 103 -31 159 -55 112 -112 174 -194 211 -98 45 -136 56
-200 56 -57 0 -78 -6 -170 -50 -66 -31 -108 -58 -116 -72 -11 -23 -87 -98 -98
-98 -9 0 -41 59 -41 75 0 7 -7 26 -15 41 -8 16 -15 36 -15 45 0 9 -6 32 -14
50 -8 19 -17 59 -21 89 -4 30 -13 71 -20 90 -7 19 -20 62 -30 95 -9 33 -23 76
-30 95 -7 19 -19 69 -26 110 -7 41 -15 80 -19 85 -4 6 -11 27 -14 49 -4 21
-11 46 -16 55 -13 25 -36 109 -50 181 -6 36 -17 81 -25 100 -28 77 -44 138
-50 190 -4 30 -13 69 -19 85 -7 17 -21 57 -31 90 -9 33 -22 74 -27 90 -5 17
-16 64 -24 105 -8 41 -18 84 -23 95 -15 38 -41 123 -41 135 0 7 -6 26 -14 43
-7 18 -20 66 -27 107 -7 41 -19 86 -26 100 -7 14 -13 35 -13 48 0 12 -4 30 -9
40 -16 32 -40 117 -51 182 -6 36 -16 79 -22 95 -5 17 -13 44 -18 60 -5 17 -13
44 -18 60 -23 69 -35 112 -52 189 -31 135 -40 166 -56 192 -19 28 -24 29 -45
9z m1423 -3003 c79 -38 125 -86 164 -171 40 -87 22 -215 -37 -280 -16 -18 -34
-41 -40 -52 -12 -23 -76 -55 -159 -79 -49 -15 -61 -15 -110 -3 -86 22 -133 49
-181 104 -58 66 -67 96 -67 204 0 50 5 104 11 122 36 98 176 192 287 192 43 0
72 -8 132 -37z"/>
<path d="M3210 1315 c-7 -8 -18 -15 -26 -15 -46 0 -138 -150 -136 -221 3 -122
148 -261 256 -246 55 8 112 38 162 84 33 30 44 49 53 93 20 94 -6 221 -48 235
-11 3 -23 14 -26 24 -15 47 -203 84 -235 46z"/>
<path d="M2976 4328 c-9 -12 -16 -31 -16 -41 0 -10 -6 -30 -14 -45 -7 -15 -16
-42 -19 -60 -6 -29 -5 -31 11 -22 55 32 95 93 96 145 1 34 -2 40 -21 43 -13 2
-27 -5 -37 -20z"/>
<path d="M2950 4070 c-8 -5 -24 -10 -35 -10 -14 0 -25 -13 -37 -43 -10 -23
-18 -49 -18 -57 0 -8 -7 -24 -15 -34 -16 -21 -20 -66 -7 -66 9 0 18 9 87 84
53 58 65 77 65 108 0 29 -14 35 -40 18z"/>
<path d="M2807 3833 c-3 -5 -8 -30 -12 -58 -4 -27 -13 -63 -20 -80 -20 -45
-71 -203 -85 -260 -6 -27 -15 -59 -20 -70 -4 -11 -18 -49 -30 -85 -12 -36 -25
-72 -30 -81 -5 -9 -14 -45 -21 -80 -7 -35 -18 -73 -26 -84 -7 -11 -13 -31 -13
-45 0 -14 -7 -34 -15 -44 -22 -30 -18 -86 14 -183 16 -49 34 -121 41 -160 13
-69 28 -90 45 -62 14 22 64 249 65 291 0 14 -6 16 -30 12 -37 -8 -64 11 -50
35 5 10 26 35 47 57 63 65 83 92 97 134 17 50 7 58 -32 25 -39 -33 -72 -33
-72 -2 0 15 26 53 70 103 44 50 70 88 70 103 0 19 -3 21 -15 11 -20 -17 -55
-3 -55 22 0 11 16 38 35 59 19 22 35 43 35 49 0 5 14 16 30 25 18 9 30 23 30
35 0 10 5 31 12 45 16 35 3 42 -38 20 -75 -40 -71 33 6 105 47 44 90 113 90
145 0 19 -26 20 -34 0 -8 -21 -32 -19 -56 5 -22 22 -27 24 -33 13z"/>
<path d="M2450 2270 c0 -5 7 -10 15 -10 8 0 15 5 15 10 0 6 -7 10 -15 10 -8 0
-15 -4 -15 -10z"/>
<path d="M2307 2063 c-4 -3 -7 -21 -7 -39 0 -18 -4 -35 -9 -39 -5 -3 -12 -20
-16 -38 -4 -17 -14 -54 -22 -82 -36 -120 -42 -143 -49 -195 -5 -48 -20 -100
-77 -285 -17 -57 -43 -57 -99 -2 -40 40 -75 61 -191 111 -70 30 -171 18 -283
-35 -22 -10 -44 -19 -49 -19 -17 0 -125 -119 -125 -139 0 -11 -6 -24 -13 -28
-27 -17 -47 -97 -47 -191 0 -86 3 -97 39 -174 58 -125 134 -188 281 -234 51
-16 176 -19 185 -5 3 5 18 12 34 16 16 3 46 15 67 26 21 10 44 19 51 19 7 0
18 10 24 22 7 12 31 41 55 63 28 26 46 54 53 82 7 23 15 45 20 48 5 2 12 42
15 87 7 90 19 155 41 233 8 28 21 91 29 140 9 50 23 115 31 145 32 108 75 308
91 425 6 39 -15 102 -29 88z m-512 -673 c3 -5 15 -10 26 -10 30 0 109 -49 146
-90 75 -82 95 -227 48 -334 -47 -107 -137 -169 -270 -190 -38 -5 -138 27 -189
62 -41 28 -104 107 -106 132 0 8 -7 24 -15 34 -9 12 -15 42 -15 73 0 55 32
165 50 171 6 2 10 10 10 17 0 37 89 101 185 133 40 13 122 15 130 2z"/>
<path d="M1640 1310 c-24 -9 -48 -27 -53 -38 -6 -12 -18 -24 -29 -28 -34 -10
-62 -82 -62 -161 -1 -45 4 -77 12 -84 6 -7 12 -19 12 -27 0 -19 81 -96 122
-116 52 -26 111 -31 149 -12 17 9 39 16 47 16 12 0 68 53 107 102 15 19 35 90
35 125 0 81 -70 183 -154 224 -49 24 -125 23 -186 -1z"/>
</g>
</svg>
